# xmcd CD database file
#
# Track frame offsets:
#	151
#	30034
#	56319
#	85232
#	103398
#	124293
#	146556
#	169853
#	183946
#	203561
#	220042
#	237559
#	278118
#	296269
#	312890
#
# Disc length: 4418 seconds
#
# Revision: 0
# Processed by: cddbd v1.5PL3 Copyright (c) Steve Scherf et al.
# Submitted via: CDex 1.50
#
DISCID=d111400f
DTITLE=Jazzica - Playbacks 1
DYEAR=1900
DGENRE=Jazz
TTITLE0=Spain
TTITLE1=La Fiesta
TTITLE2=Sister Sadie
TTITLE3=Monster On A Leash
TTITLE4=Watermelon Man
TTITLE5=Lover Man
TTITLE6=Doxy
TTITLE7=Lucretia Mac Evil
TTITLE8=Nuclear Blues
TTITLE9=Move Over
TTITLE10=Halfmoon
TTITLE11=Theme Of Yoyo
TTITLE12=Sir Duke
TTITLE13=Cold Sweat
TTITLE14=Sweet Dreams
EXTD=
EXTT0=
EXTT1=
EXTT2=
EXTT3=
EXTT4=
EXTT5=
EXTT6=
EXTT7=
EXTT8=
EXTT9=
EXTT10=
EXTT11=
EXTT12=
EXTT13=
EXTT14=
PLAYORDER=
